<svg display="block" viewBox="0 0 2048 760" xmlns="http://www.w3.org/2000/svg">
  <path d="M 0 0 L 2048 0 L 2048 765.742 L 0 765.742 L 0 0 Z" fill="#fefefe" style=""/>
  <path d="m657.548 90.4844 881.522.0575 190.61.9049c26.09.1946 52.29-.2407 78.36.5893 28.12.8952 67.2 10.3329 87.04 31.7649 30.61 33.071 25.45 100.219 25.61 142.73.08 22.093.85 44.478-.09 66.542-1.61 37.832-5.95 83.119-35.61 110.2-6.69 24.119-4.51 71.345-12.79 87.701-3.62 2.709-13.06 3.114-17.71 3.276-12.92.45-26.07-.532-39.01-.653-20.47-.191-40.93.96-61.38.798-15.55-.124-31.03-1.624-46.62-1.533l-433.07 3.238c-15.51.344-31.04 2.266-46.55 2.227-27.43-.069-55.2-2.388-82.57-.278-9.64 7.548-18.39 16.823-27.64 24.931-20 17.535-40.4 34.59-60.15 52.418-10.87 9.814-26.75 26.831-39.06 33.502-13.38-6.951-24.695-19.926-36.388-29.555l-96.674-80.23c-24.077 1.896-47.273 1.401-71.372 1.281l-89.169.429-157.796.007c-21.905.183-43.841 2.07-65.721 1.8l-148.279-2.667c-12.044-.215-24.06-2.157-36.094-2.022-18.317.205-136.235 6.821-143.66 1.674-11.794-8.176-4.541-71.706-8.93-85.132-3.031-9.27-17.106-19.502-22.735-29.911-12.189-22.542-14.221-84.819-15.284-111.796-1.631-41.368 1.844-123.852 13.488-162.547 3.665-12.177 9.584-25.009 18.501-34.269 10.908-11.327 26.886-18.8827 42.287-21.5566 15.736-2.7319 32.754-1.4344 48.727-1.426l77.386-.1472 207.41-1.7014a7432.73 7432.73 0 0 0 123.411-.6464z"/>
  <path d="m1060.26 105.472a55432.6 55432.6 0 0 1 750.4 1.391c23.87.397 49.92 9.281 66.64 26.9 29.87 31.487 28.39 83.215 28.37 123.608a2139.72 2139.72 0 0 1 -.92 61.159c-1.09 31.626-3.37 85.703-28.06 107.972-11.96 10.79-35.07 19.311-51.06 21.32-20.06 2.519-39.94 1.126-60.04 1.707-20.05.58-40.09 2.446-60.12 3.048-26.88.808-53.7-.237-80.56-.134l-319.51-1.226c-15.45-.21-30.66 1.295-46.07 1.57-10.14.181-20.26-1.118-30.4-1.079-19.95.076-39.96 1.312-59.98 1.36-27.31.065-54.72-2.29-81.95-1.997-29.15.314-58.78 2.456-87.877 1.455-6.448-1.302-15.22-.626-21.891-.676-25.609-.195-51.156 1.528-76.755 1.16l-382.899-3.253c-29.864-.314-59.655 1.274-89.576.511-19.579-.499-39.128-2.299-58.699-3.051-16.98-.651-33.998.67-50.984.777-31.616.199-63.627-1.045-95.026-4.932-18.986-2.35-43.924-6.024-58.695-19.412-20.247-18.35-20.785-67.845-21.474-93.616-1.277-47.75-2.143-124.294 13.684-168.564 4.393-12.288 10.892-23.654 19.954-33.107 9.382-9.785 19.178-15.644 32.686-17.571 21.491-3.067 50.847-1.683 73.141-1.788l128.185-1.061a26646.8 26646.8 0 0 1 453.455-2.126c65.352-.073 130.691 1.023 196.031-.345z" fill="#fefefe"/>
  <path d="m1375.43 170.272c8.74-.584 21.72-2.325 29.61 1.554 1.94 2.86 2.22 5.871 2.51 9.237 2.51 28.915 1.06 59.138 1.64 88.203.47 24.176 3.59 50.362 1.21 74.357-.45 4.441-1.39 6.405-4.82 9.263-9.7.806-24.39 3.514-32.43-3.192-1.55-2.801-1.69-5.939-1.86-9.075-1.73-31.862-.68-64.483-1.03-96.423-.14-13.439-3.08-58.233-.21-68.201 1-3.486 2.48-3.999 5.38-5.723z"/>
  <path d="m1438.8 169.507a1629.4 1629.4 0 0 1 29.27-.218l63.6-.048c9.25.003 20.18-1.084 29.24.471 2.32.398 2.91.83 4.5 2.411 1.54 5.893 3.39 12.526 2.76 18.641-2.2 21.382-38.98 3.868-50.11 13.156-5.2 10.109-.9 92.657-.99 111.33.4 7.82 3.42 28.366-1.05 34.697-1.42 2.025-2.71 2.512-5.07 3.046-5.57 1.26-24.76 1.479-29.12-1.979-2.59-2.054-2.6-5.23-2.93-8.267-1.9-17.286-.71-35.794-.86-53.267-.25-29.236-1.06-58.452-1.06-87.691-8.83-.205-37.56 1.3-44.04-1.959-2.96-1.486-4.08-3.897-4.83-6.998-1.67-6.84-1.5-15.142 2.35-21.214 2.47-2.15 5.24-1.929 8.34-2.111z"/>
  <path d="m1054.56 167.377c13.65-.748 36.82 1.333 47.37 10.736 3.93 3.499 5.91 8.319 5.89 13.544-.02 5.093-2.01 12.205-6.13 15.556-1.3 1.057-3.12 2.14-4.88 2.145-5.84.018-22.92-12.019-38.52-12.573-7.11-.253-13.27 1.545-18.33 6.701-3.09 3.154-5.47 6.962-5.21 11.535.95 16.911 30.7 28.029 43.32 35.431 7.58 4.445 14.81 9.556 21.1 15.715 10.12 9.914 17.11 22.524 17.17 36.994.05 14.759-3.55 27.696-14.43 38.25-14.97 14.511-36.28 17.629-56.23 17.334-18.41-1.871-38.58-6.857-50.774-21.759.644-7.196 2.218-19.09 6.974-24.595 8.45-9.774 24.36 6.41 32.46 10.56 6.91 3.542 15.17 5.546 22.95 4.842 6.46-.586 12.14-2.849 16.14-8.127 3.22-4.234 4.94-9.885 4.15-15.183-2.72-18.213-40.85-35.547-55.21-46.447-12.02-9.128-22.797-20.837-24.629-36.505-1.347-11.53 1.022-23.029 8.479-32.083 12.38-15.03 29.59-20.564 48.34-22.071z"/>
  <path d="m839.409 170.233c8.552-.275 18.218-1.361 26.539.912 2.481 2.288 2.998 4.571 3.511 7.873 1.226 7.9.617 16.378.622 24.373.008 12.983.172 25.858 1.197 38.806 16.471-19.867 47.946-55.771 67.055-70.841 9.657-1.75 21.691-2.355 31.463-1.13 3.043.382 6.094.809 8.094 3.333l-1.825.324 1.353-.435.4 1.118c-4.382 8.505-12.769 15.952-19.264 22.897-17.079 18.26-42.456 41.695-55.692 62.317l-.799 1.257c7.799 12.808 41.21 43.536 53.467 56.028 5.205 5.419 23.41 21.964 24.852 28.6.628 2.888.091 3.258-1.53 5.481-9.124 4.6-23.231 2.613-33.298 2.469-7.85-5.391-14.74-13.901-21.526-20.654-18.311-18.221-36.133-36.589-53.944-55.284-.383 18.818.176 37.663.231 56.485.015 4.913.823 14.541-3.42 17.724-5.223 3.917-19.783 2.986-25.929 2.044-2.614-.401-5.63-1.902-6.946-4.313-1.049-1.922-1.212-4.503-1.294-6.648-1.186-30.923.161-62.283.155-93.269-.004-14.224-2.863-62.04.418-73.425 1.05-3.641 3.005-4.451 6.11-6.042z"/>
  <path d="m561.4 170.337c6.897-.364 15.641-1.742 22.123.964 8.373 9.337 68.422 165.723 69.377 177.723-.573 1.445-.616 2.407-2.002 3.293-5.425 3.467-20.803 2.977-26.816 1.044-11.241-3.614-12.31-21.271-17.248-30.775l-.731-1.393c-8.321-.696-16.569-.895-24.917-.968a1002.54 1002.54 0 0 0 -43.164.873c-3.647 8.88-7.258 24.294-14.508 30.78-4.631 4.142-12.323 3.136-18.139 2.96-5.291-.16-9.738-.32-13.508-4.374-.45-1.325-.604-2.329-.337-3.723 1.889-9.896 6.68-20.273 10.116-29.798 8.842-24.518 18.278-48.694 27.743-72.971 8.072-20.703 17.228-49.078 27.008-68.409 1.261-2.493 2.735-3.662 5.003-5.226z"/>
  <path d="m570.414 230.61c6.103 5.289 21.099 49.783 23.575 59.285l-20.424-.091a1240.67 1240.67 0 0 1 -24.346.074c4.972-19.876 13.165-40.408 21.195-59.268z" fill="#fefefe"/>
  <path d="m1593.38 169.368c7.71-.161 23.4-2.084 29.67 2.854 4.46 12.139 2.12 50.936 2.14 65.687a2341.88 2341.88 0 0 0 80.79-.66c.09-10.972-1.46-57.72 1.53-64.298 2.22-1.722 4.39-2.316 7.1-2.832 8.13-1.543 22.68-2.387 29.64 2.333 2.12 5.394 2.82 146.833 2.53 160.466-.11 5.371-.09 11.985-1.94 17.062-4.77 4.141-11.83 3.209-17.79 3.303-5.48.076-12.43 1.025-16.83-2.867-1.73-1.536-2.52-3.243-2.9-5.473-1.33-7.943-.49-17.089-.46-25.187a2331.09 2331.09 0 0 0 -.11-47.743c-26.94-.45-53.95-.072-80.9-.077-.07 10.45 2.06 72.442-1.65 77.566-1.86 2.569-3.54 3.051-6.54 3.506-7.4 1.124-22.38 2.103-28.5-2.606-1.46-3.99-1.92-7.918-2.12-12.138-.8-16.945-2.74-154.587-.07-163.128 1.17-3.713 3.28-4.261 6.41-5.768z"/>
  <path d="m717.565 169.433c9.177-.148 18.761.225 27.815 1.747 16.972 2.852 32.834 9.947 42.763 24.679 8.974 13.313 11.364 30.885 7.929 46.435-4.002 18.12-15.04 27.651-29.971 37.111 11.446 13.384 39.375 51.388 43.65 66.975.675 2.461.716 3.521-.582 5.684-9.075 3.928-23.783 1.94-33.653 1.83-6.466-7.962-11.833-16.864-17.424-25.452-7.664-11.175-17.695-32.595-28.555-40.463-2.602-1.885-7.967-2.619-10.978-1.584-11.174 3.842-.216 51.832-6.733 63.17-1.375 2.392-3.013 3.675-5.726 4.22-5.139 1.032-22.206 1.449-26.168-2.006-3.479-3.034-3.919-10.183-4.084-14.45-1.323-34.237-.492-69.007-.161-103.279.162-16.811-.935-34.218.437-50.948.185-2.254.348-6.542 2.103-8.1 7.359-6.53 29.741-5.147 39.338-5.569z"/>
  <path d="m724.752 199.369c3.045.031 6.036.159 9.041.689 8.476 1.492 16.361 6.005 21.192 13.247a29.051 29.051 0 0 1 4.055 22.101c-1.788 8.121-6.629 13.412-13.376 17.847-10.788 3.998-20.432 3.701-31.674 3.701a1801.37 1801.37 0 0 0 -.604-56.034c3.755-.687 7.578-1.071 11.366-1.551z" fill="#fefefe"/>
  <path d="m1290.27 169.322c7.55-.081 16.86-.966 24.14 1.173 2.87.843 5.14 2.198 6.33 5.025 3.61 8.628 5.71 44.072 7.27 55.821 4.77 35.767 11.77 71.939 14.57 107.876.29 3.764.46 7.237-1.03 10.766-2.33 2.143-4.35 2.912-7.43 3.39-5.89.915-18.93 2.059-23.71-1.703-3.01-2.362-4.39-6.267-5.16-9.883-2.3-10.863-1.94-23.108-2.9-34.262l-6.86-71.654c-11.57 32.01-22.26 64.332-33.62 96.417-2.33 6.593-4.84 16.663-11.88 19.628-4.19 1.761-15.07 1.928-19.09-.271-1.89-1.034-2.66-1.902-3.69-3.786-5.92-10.887-9.78-23.922-14.13-35.566-9.06-24.254-17.75-48.619-27.67-72.544-3.19 4.671-3.29 31.068-3.98 38.596-1.47 16.245-3.7 51.954-7.54 66.097-.88 3.254-2.15 6.423-4.94 8.47-3.52 2.58-15.72 1.558-20.12 1.015-4.35-.537-8.08-1.093-10.87-4.687-3-15.739 12.19-110.567 15.23-132.452 1.63-11.739 2.44-23.751 4.39-35.407.63-3.754 1.31-8.048 4.81-10.172 6.07-3.678 23.74-2.176 30.13.369 2.19.875 4.87 2.249 6.02 4.396 4.97 9.315 7.76 22.022 11.3 32.055 9.57 27.098 18.98 55.219 30.99 81.304 4.61-10.551 7.69-21.882 11.48-32.756a4463.71 4463.71 0 0 1 18.7-51.375c3.61-9.789 6.71-21.26 12.49-29.968 1.83-2.754 3.93-4.302 6.77-5.912z"/>
  <path d="m427.465 170.396c7.424-.22 21.425-2.207 26.814 3.654 1.382 1.503 2.169 3.451 2.554 5.429 1.27 6.535 1.135 13.405 2.048 20.008l5.816 39.763 11.056 74.259c1.619 11.606 4.85 25.181 3.727 36.861-1.391 1.57-1.958 2.13-4.089 2.683-6.608 1.715-23.569 2.823-29.427-.974-1.937-1.256-2.579-4.579-3.109-6.723-2.778-11.232-3.678-23.468-5.201-34.975-2.974-22.458-5.762-44.889-9.3-67.272-4.79 16.219-34.613 101.406-41.309 109.255-4.544 1.667-9.285 2.139-14.11 1.925-2.869-.127-7.545-.214-10.092-1.765-4.242-2.583-28.385-68.33-32.155-78.332-3.221-8.547-6.077-22.289-12.218-28.82l-1.179.274-.896 4.754-6.385 52.912c-1.592 13.902-1.853 35.075-7.018 47.821-5.641 4.913-15.167 3.751-22.247 3.557-4.882-.134-9.217-.209-12.77-3.923-1.012-3.956-.658-7.969-.242-11.991 4.059-39.301 11.272-79.014 17.444-118.071 2.155-13.642 2.618-30.479 7.414-43.307 1.014-2.711 1.783-4.304 4.55-5.47 5.995-2.525 25.941-2.088 31.71.777 2.67 1.326 4.731 3.565 6.021 6.241 4.12 8.545 6.724 18.941 10.123 27.919 10.314 27.246 20.264 54.448 29.747 81.996 10.694-24.654 19.746-50.097 29.122-75.272 4.266-11.456 9.262-30.263 16.214-39.992 1.765-2.47 4.599-2.671 7.387-3.201z"/>
</svg>
